<svg width="263" height="306" viewBox="0 0 263 306" fill="none" xmlns="http://www.w3.org/2000/svg">
<g filter="url(#filter0_d_26_2387)">
<g opacity="0.36" filter="url(#filter1_f_26_2387)">
<path d="M252 261.095V268.468L157.731 228.039V220.429L252 180V187.372L164.982 224.234V224.472L252 261.095Z" fill="url(#paint0_linear_26_2387)"/>
</g>
<g opacity="0.41" filter="url(#filter2_f_26_2387)">
<path opacity="0.55" d="M31.9299 101.111L31.9299 119.773" stroke="url(#paint1_linear_26_2387)" stroke-width="6"/>
<path d="M33.8462 76.9999L44 104L39.1485 104L31.5398 81.8028L31.4337 81.8028L23.7985 104L19 104L29.1273 76.9999L33.8462 76.9999Z" fill="white"/>
<path d="M33.8462 76.9999L44 104L39.1485 104L31.5398 81.8028L31.4337 81.8028L23.7985 104L19 104L29.1273 76.9999L33.8462 76.9999Z" fill="url(#paint2_linear_26_2387)"/>
</g>
<g filter="url(#filter3_d_26_2387)">
<g opacity="0.61" filter="url(#filter4_f_26_2387)">
<path d="M38.4817 286.674C38.5549 286.94 38.8302 287.097 39.0964 287.023L43.4351 285.829C43.7013 285.756 43.8578 285.481 43.7845 285.215C43.7112 284.948 43.436 284.792 43.1697 284.865L39.3131 285.927L38.2517 282.07C38.1784 281.804 37.9032 281.647 37.637 281.721C37.3707 281.794 37.2143 282.069 37.2876 282.335L38.4817 286.674ZM195.482 11.8673C195.409 11.6011 195.134 11.4446 194.867 11.5179L190.529 12.712C190.262 12.7853 190.106 13.0605 190.179 13.3268C190.253 13.593 190.528 13.7495 190.794 13.6762L194.651 12.6148L195.712 16.4714C195.785 16.7376 196.061 16.894 196.327 16.8208C196.593 16.7475 196.749 16.4722 196.676 16.206L195.482 11.8673ZM194.565 11.7529L193.565 13.5128L194.434 14.0069L195.435 12.2471L194.565 11.7529ZM189.564 20.5523L187.564 24.0721L188.433 24.5662L190.434 21.0465L189.564 20.5523ZM183.563 31.1116L181.562 34.6314L182.432 35.1255L184.432 31.6057L183.563 31.1116ZM177.561 41.6709L175.561 45.1907L176.43 45.6848L178.431 42.165L177.561 41.6709ZM171.56 52.2302L169.559 55.7499L170.429 56.2441L172.429 52.7243L171.56 52.2302ZM165.559 62.7895L163.558 66.3092L164.427 66.8033L166.428 63.2836L165.559 62.7895ZM159.557 73.3487L157.557 76.8685L158.426 77.3626L160.427 73.8429L159.557 73.3487ZM153.556 83.908L151.555 87.4278L152.425 87.9219L154.425 84.4021L153.556 83.908ZM147.554 94.4673L145.554 97.9871L146.423 98.4812L148.424 94.9614L147.554 94.4673ZM141.553 105.027L139.553 108.546L140.422 109.04L142.422 105.521L141.553 105.027ZM135.552 115.586L133.551 119.106L134.421 119.6L136.421 116.08L135.552 115.586ZM129.55 126.145L127.55 129.665L128.419 130.159L130.42 126.639L129.55 126.145ZM123.549 136.704L121.548 140.224L122.418 140.718L124.418 137.199L123.549 136.704ZM117.547 147.264L116.547 149.024L117.417 149.518L118.417 147.758L117.547 147.264ZM116.547 149.024L115.547 150.783L116.416 151.278L117.417 149.518L116.547 149.024ZM111.546 157.823L109.546 161.343L110.415 161.837L112.415 158.317L111.546 157.823ZM105.545 168.382L103.544 171.902L104.414 172.396L106.414 168.876L105.545 168.382ZM99.5432 178.942L97.5428 182.461L98.4122 182.955L100.413 179.436L99.5432 178.942ZM93.5418 189.501L91.5414 193.021L92.4108 193.515L94.4112 189.995L93.5418 189.501ZM87.5404 200.06L85.54 203.58L86.4094 204.074L88.4098 200.554L87.5404 200.06ZM81.539 210.619L79.5386 214.139L80.408 214.633L82.4084 211.114L81.539 210.619ZM75.5376 221.179L73.5372 224.698L74.4066 225.193L76.407 221.673L75.5376 221.179ZM69.5363 231.738L67.5358 235.258L68.4052 235.752L70.4056 232.232L69.5363 231.738ZM63.5349 242.297L61.5344 245.817L62.4038 246.311L64.4043 242.791L63.5349 242.297ZM57.5335 252.857L55.533 256.376L56.4024 256.87L58.4029 253.351L57.5335 252.857ZM51.5321 263.416L49.5316 266.936L50.401 267.43L52.4015 263.91L51.5321 263.416ZM45.5307 273.975L43.5302 277.495L44.3996 277.989L46.4001 274.469L45.5307 273.975ZM39.5293 284.534L38.529 286.294L39.3984 286.788L40.3987 285.028L39.5293 284.534Z" fill="#747474"/>
</g>
<g filter="url(#filter5_d_26_2387)">
<path d="M68.0405 235.031L75.9038 232.832L73.705 224.969L65.8417 227.168L68.0405 235.031ZM172.155 50.084L162.218 55.9659L172.281 61.6303L172.155 50.084ZM71.7442 230.491L122.385 140.533L120.642 139.551L70.0013 229.509L71.7442 230.491ZM122.385 140.533L168.611 58.4172L166.869 57.4361L120.642 139.551L122.385 140.533Z" fill="url(#paint3_linear_26_2387)"/>
</g>
<path d="M167.281 218.004C135.514 218.004 111.593 202.54 130.901 190.082L109.678 185.315H116.699L138.013 190.082C118.705 198.913 139.799 211.84 167.19 211.84C183.51 211.84 194.634 203.771 194.634 192.077V191.986C194.634 181.923 188.708 176.756 173.481 173.22L160.26 170.138C142.207 165.967 133.91 158.624 133.91 146.295V146.204C133.91 131.246 147.404 120.639 166.187 120.639C185.607 120.639 198.281 131.79 200.196 148.561L200.287 149.377H193.449L193.358 148.743C191.534 135.507 181.322 126.804 166.187 126.804C151.416 126.804 141.022 134.872 141.022 146.114V146.204C141.022 155.179 147.131 160.437 162.357 163.973L175.578 167.055C194.178 171.407 201.837 178.569 201.837 191.623V191.714C201.837 207.216 187.431 218.004 167.281 218.004Z" fill="white"/>
<path d="M167.281 218.004C135.514 218.004 111.593 202.54 130.901 190.082L109.678 185.315H116.699L138.013 190.082C118.705 198.913 139.799 211.84 167.19 211.84C183.51 211.84 194.634 203.771 194.634 192.077V191.986C194.634 181.923 188.708 176.756 173.481 173.22L160.26 170.138C142.207 165.967 133.91 158.624 133.91 146.295V146.204C133.91 131.246 147.404 120.639 166.187 120.639C185.607 120.639 198.281 131.79 200.196 148.561L200.287 149.377H193.449L193.358 148.743C191.534 135.507 181.322 126.804 166.187 126.804C151.416 126.804 141.022 134.872 141.022 146.114V146.204C141.022 155.179 147.131 160.437 162.357 163.973L175.578 167.055C194.178 171.407 201.837 178.569 201.837 191.623V191.714C201.837 207.216 187.431 218.004 167.281 218.004Z" fill="url(#paint4_linear_26_2387)"/>
<path d="M78.5993 163.317L67.524 90.2415L76.6519 92.1472L84.9901 155.193L85.1857 155.234L123.201 85.3616L132.199 87.2401L87.7924 165.236L78.5993 163.317Z" fill="white"/>
<path d="M78.5993 163.317L67.524 90.2415L76.6519 92.1472L84.9901 155.193L85.1857 155.234L123.201 85.3616L132.199 87.2401L87.7924 165.236L78.5993 163.317Z" fill="url(#paint5_linear_26_2387)"/>
<path d="M126.372 173.273C126.372 169.522 129.52 166.5 133.428 166.5C137.336 166.5 140.483 169.522 140.483 173.273C140.483 179.167 135.78 185.247 133.428 190.019C131.076 185.885 126.372 179.167 126.372 173.273Z" fill="url(#paint6_linear_26_2387)"/>
<path d="M129.9 173.556C129.9 171.602 131.474 170.028 133.428 170.028C135.382 170.028 136.956 171.602 136.956 173.556C136.956 175.51 135.382 177.084 133.428 177.084C131.474 177.084 129.9 175.51 129.9 173.556Z" fill="white"/>
<path d="M129.9 173.556C129.9 171.602 131.474 170.028 133.428 170.028C135.382 170.028 136.956 171.602 136.956 173.556C136.956 175.51 135.382 177.084 133.428 177.084C131.474 177.084 129.9 175.51 129.9 173.556Z" fill="url(#paint7_radial_26_2387)"/>
</g>
</g>
<defs>
<filter id="filter0_d_26_2387" x="0.3" y="0.799878" width="262.4" height="304.942" filterUnits="userSpaceOnUse" color-interpolation-filters="sRGB">
<feFlood flood-opacity="0" result="BackgroundImageFix"/>
<feColorMatrix in="SourceAlpha" type="matrix" values="0 0 0 0 0 0 0 0 0 0 0 0 0 0 0 0 0 0 127 0" result="hardAlpha"/>
<feOffset dx="-4" dy="4"/>
<feGaussianBlur stdDeviation="7.35"/>
<feComposite in2="hardAlpha" operator="out"/>
<feColorMatrix type="matrix" values="0 0 0 0 0 0 0 0 0 0 0 0 0 0 0 0 0 0 0.38 0"/>
<feBlend mode="normal" in2="BackgroundImageFix" result="effect1_dropShadow_26_2387"/>
<feBlend mode="normal" in="SourceGraphic" in2="effect1_dropShadow_26_2387" result="shape"/>
</filter>
<filter id="filter1_f_26_2387" x="149.331" y="171.6" width="111.069" height="105.268" filterUnits="userSpaceOnUse" color-interpolation-filters="sRGB">
<feFlood flood-opacity="0" result="BackgroundImageFix"/>
<feBlend mode="normal" in="SourceGraphic" in2="BackgroundImageFix" result="shape"/>
<feGaussianBlur stdDeviation="4.2" result="effect1_foregroundBlur_26_2387"/>
</filter>
<filter id="filter2_f_26_2387" x="15" y="72.9999" width="33" height="50.7734" filterUnits="userSpaceOnUse" color-interpolation-filters="sRGB">
<feFlood flood-opacity="0" result="BackgroundImageFix"/>
<feBlend mode="normal" in="SourceGraphic" in2="BackgroundImageFix" result="shape"/>
<feGaussianBlur stdDeviation="2" result="effect1_foregroundBlur_26_2387"/>
</filter>
<filter id="filter3_d_26_2387" x="18.5695" y="0.799878" width="193.968" height="304.942" filterUnits="userSpaceOnUse" color-interpolation-filters="sRGB">
<feFlood flood-opacity="0" result="BackgroundImageFix"/>
<feColorMatrix in="SourceAlpha" type="matrix" values="0 0 0 0 0 0 0 0 0 0 0 0 0 0 0 0 0 0 127 0" result="hardAlpha"/>
<feOffset dx="-4" dy="4"/>
<feGaussianBlur stdDeviation="7.35"/>
<feComposite in2="hardAlpha" operator="out"/>
<feColorMatrix type="matrix" values="0 0 0 0 0 0 0 0 0 0 0 0 0 0 0 0 0 0 0.38 0"/>
<feBlend mode="normal" in2="BackgroundImageFix" result="effect1_dropShadow_26_2387"/>
<feBlend mode="normal" in="SourceGraphic" in2="effect1_dropShadow_26_2387" result="shape"/>
</filter>
<filter id="filter4_f_26_2387" x="35.2695" y="9.49988" width="163.425" height="279.542" filterUnits="userSpaceOnUse" color-interpolation-filters="sRGB">
<feFlood flood-opacity="0" result="BackgroundImageFix"/>
<feBlend mode="normal" in="SourceGraphic" in2="BackgroundImageFix" result="shape"/>
<feGaussianBlur stdDeviation="1" result="effect1_foregroundBlur_26_2387"/>
</filter>
<filter id="filter5_d_26_2387" x="55.9417" y="40.184" width="126.239" height="204.747" filterUnits="userSpaceOnUse" color-interpolation-filters="sRGB">
<feFlood flood-opacity="0" result="BackgroundImageFix"/>
<feColorMatrix in="SourceAlpha" type="matrix" values="0 0 0 0 0 0 0 0 0 0 0 0 0 0 0 0 0 0 127 0" result="hardAlpha"/>
<feOffset/>
<feGaussianBlur stdDeviation="4.95"/>
<feComposite in2="hardAlpha" operator="out"/>
<feColorMatrix type="matrix" values="0 0 0 0 0 0 0 0 0 0 0 0 0 0 0 0 0 0 0.25 0"/>
<feBlend mode="normal" in2="BackgroundImageFix" result="effect1_dropShadow_26_2387"/>
<feBlend mode="normal" in="SourceGraphic" in2="effect1_dropShadow_26_2387" result="shape"/>
</filter>
<linearGradient id="paint0_linear_26_2387" x1="207.448" y1="160.063" x2="209.852" y2="260.95" gradientUnits="userSpaceOnUse">
<stop offset="0.09" stop-color="white"/>
<stop offset="0.48" stop-color="#FFE9DD"/>
<stop offset="0.922094" stop-color="#D35D38" stop-opacity="0.84"/>
<stop offset="1" stop-color="#AB1D40"/>
</linearGradient>
<linearGradient id="paint1_linear_26_2387" x1="32.4573" y1="96.9055" x2="40.6966" y2="114.296" gradientUnits="userSpaceOnUse">
<stop offset="0.09" stop-color="white"/>
<stop offset="0.48" stop-color="#FFE9DD"/>
<stop offset="0.922094" stop-color="#D35D38" stop-opacity="0.84"/>
<stop offset="1" stop-color="#AB1D40"/>
</linearGradient>
<linearGradient id="paint2_linear_26_2387" x1="8.56924" y1="114.127" x2="8.12039" y2="76.9996" gradientUnits="userSpaceOnUse">
<stop offset="0.16" stop-color="#AB1D40"/>
<stop offset="0.355" stop-color="#D35D38" stop-opacity="0.84"/>
<stop offset="0.58" stop-color="#DBCBC2"/>
<stop offset="0.935" stop-color="#E0B9A4"/>
</linearGradient>
<linearGradient id="paint3_linear_26_2387" x1="174.807" y1="47.4654" x2="58.505" y2="249.847" gradientUnits="userSpaceOnUse">
<stop stop-color="#FFE4DD"/>
<stop offset="0.102" stop-color="#F58A4F"/>
<stop offset="0.526577" stop-color="#EF4634"/>
<stop offset="0.885" stop-color="#DA2351"/>
<stop offset="0.995" stop-color="#6B192E"/>
</linearGradient>
<linearGradient id="paint4_linear_26_2387" x1="168.269" y1="98.6979" x2="172.131" y2="209.659" gradientUnits="userSpaceOnUse">
<stop offset="0.09" stop-color="white"/>
<stop offset="0.63" stop-color="#FFE9DD"/>
<stop offset="0.85" stop-color="#D35D38" stop-opacity="0.84"/>
<stop offset="1" stop-color="#BB363D" stop-opacity="0.937297"/>
</linearGradient>
<linearGradient id="paint5_linear_26_2387" x1="101.633" y1="67.3617" x2="104.488" y2="158.41" gradientUnits="userSpaceOnUse">
<stop offset="0.09" stop-color="white"/>
<stop offset="0.48" stop-color="#FFE9DD"/>
<stop offset="0.922094" stop-color="#D35D38" stop-opacity="0.84"/>
<stop offset="1" stop-color="#AB1D40"/>
</linearGradient>
<linearGradient id="paint6_linear_26_2387" x1="133.815" y1="161.2" x2="134.948" y2="187.987" gradientUnits="userSpaceOnUse">
<stop offset="0.025" stop-color="#FFE9DD"/>
<stop offset="0.55" stop-color="#EF6A41" stop-opacity="0.84"/>
<stop offset="1" stop-color="#80233A"/>
</linearGradient>
<radialGradient id="paint7_radial_26_2387" cx="0" cy="0" r="1" gradientUnits="userSpaceOnUse" gradientTransform="translate(136.956 170.224) rotate(127.992) scale(11.462 7.42034)">
<stop offset="0.07" stop-color="#F58A4F"/>
<stop offset="0.55" stop-color="#EF4634"/>
<stop offset="1" stop-color="#DA2351"/>
</radialGradient>
</defs>
</svg>
