<svg id="b" xmlns="http://www.w3.org/2000/svg" xmlns:xlink="http://www.w3.org/1999/xlink" viewBox="0 0 837.72 837.72"><defs><linearGradient id="d" x1="5322.04" y1="174.65" x2="5021.47" y2="559.09" gradientTransform="translate(-4912.84 -71.9)" gradientUnits="userSpaceOnUse"><stop offset="0" stop-color="#f9aa6c"/><stop offset=".13" stop-color="#fbab43"/><stop offset=".61" stop-color="#f2b45e"/><stop offset=".86" stop-color="#f89850"/><stop offset="1" stop-color="#ec6632"/></linearGradient><linearGradient id="e" x1="5480.89" y1="437.39" x2="5239" y2="482.15" gradientTransform="translate(-4912.84 -71.9)" gradientUnits="userSpaceOnUse"><stop offset="0" stop-color="#fcb54b"/><stop offset=".49" stop-color="#fbc692"/><stop offset=".77" stop-color="#fbba6f"/><stop offset=".92" stop-color="#f2ab5d"/></linearGradient><radialGradient id="f" cx="448.65" cy="397" fx="448.65" fy="397" r="134.52" gradientUnits="userSpaceOnUse"><stop offset="0" stop-color="#fdc897"/><stop offset=".05" stop-color="#f9af78"/><stop offset=".23" stop-color="#f9a970"/><stop offset="1" stop-color="#f7ab69"/></radialGradient><linearGradient id="g" x1="5133.93" y1="290.33" x2="5268.78" y2="397.11" gradientTransform="translate(-4912.84 -71.9)" gradientUnits="userSpaceOnUse"><stop offset="0" stop-color="#f68a52"/><stop offset=".57" stop-color="#ef4634"/><stop offset="1" stop-color="#f17d4c"/></linearGradient><radialGradient id="h" cx="284.54" cy="281.86" fx="284.54" fy="281.86" r="255.69" gradientUnits="userSpaceOnUse"><stop offset="0" stop-color="#2e2643"/><stop offset=".01" stop-color="#3d263c"/><stop offset=".03" stop-color="#492737"/><stop offset=".05" stop-color="#502734"/><stop offset=".1" stop-color="#532834"/><stop offset=".14" stop-color="#592836"/><stop offset=".27" stop-color="#6f283c"/><stop offset=".36" stop-color="#78283f"/><stop offset=".52" stop-color="#702b3d"/><stop offset=".7" stop-color="#603439"/><stop offset="1" stop-color="#813641"/></radialGradient><radialGradient id="i" cx="395.09" cy="2.29" fx="395.09" fy="2.29" r="602.19" gradientUnits="userSpaceOnUse"><stop offset=".15" stop-color="#f3784c"/><stop offset=".65" stop-color="#e2494c"/><stop offset=".83" stop-color="#8c1c2e"/></radialGradient><linearGradient id="j" x1="5448.52" y1="188.82" x2="5312.93" y2="277.48" gradientTransform="translate(-4912.84 -71.9)" gradientUnits="userSpaceOnUse"><stop offset="0" stop-color="#2b6f7a"/><stop offset="1" stop-color="#334d54"/></linearGradient><linearGradient id="k" x1="476.23" y1="360.15" x2="782.71" y2="564.37" gradientUnits="userSpaceOnUse"><stop offset="0" stop-color="#fdf0dc"/><stop offset=".26" stop-color="#fff4e3"/><stop offset="1" stop-color="#fdc999"/></linearGradient><linearGradient id="l" x1="355.13" y1="541.94" x2="356.56" y2="542.89" xlink:href="#k"/><linearGradient id="m" x1="5431.53" y1="810.3" x2="5246.43" y2="943.43" gradientTransform="translate(-4912.84 -71.9)" gradientUnits="userSpaceOnUse"><stop offset="0" stop-color="#ed7c4f"/><stop offset=".26" stop-color="#e32031"/><stop offset="1" stop-color="#e32031"/></linearGradient><linearGradient id="n" x1="465.2" y1="530.57" x2="381.62" y2="621.99" gradientUnits="userSpaceOnUse"><stop offset="0" stop-color="#f79965"/><stop offset=".5" stop-color="#e62932"/><stop offset="1" stop-color="#e02032"/></linearGradient><radialGradient id="o" cx="154.73" cy="676.71" fx="115.95" fy="697.75" r="689.34" gradientUnits="userSpaceOnUse"><stop offset="0" stop-color="#fdc897"/><stop offset=".33" stop-color="#f9af78"/><stop offset=".51" stop-color="#f79651"/><stop offset=".62" stop-color="#f58a4f"/><stop offset=".73" stop-color="#f3784c"/><stop offset=".8" stop-color="#f5885a"/><stop offset=".9" stop-color="#f9a775"/></radialGradient></defs><g id="c"><path d="M304.78,18.45l2.75,2.54c18.53,49.14,61.76,86.42,101.31,119.65,14.89,11.15,29.69,22.34,43.87,34.38,14.81,12.58,27.54,29.53-1.69,32.7-16.43.39-32.36,2.95-47.78,7.67l-2.31-1.28c-.33.86-.67.86-1,0l-3.53-.11c-44.56-47.89-117.22-53.66-166.89-9.9-76,66.96-35.03,186.48,60.75,202.8.04,3.1.3,6.1.78,9.01.96,1.35,1.88,2.81,2.12,4.48,1.09,7.79,1.81,18.23-.12,25.49,1,1,2.09,2.11,2.42,3.52,1.62,6.92,3.3,17,1.58,23.45l2.72,4.1c3.69,21.93,9.51,43.45,18.31,63.9l-.05,4.92c2.84,2.24,3.18,3.91,1,5-1.78-.58-3.56-.92-5.44-1.03-15.93-.93-35.41,2.02-50.95.99-2.51-.17-4.59-2.72-7.14-2.94-27.87-2.44-53.08-7.81-79.29-17.52-19.16-7.1-35.29-18.95-53.7-26.22-18.71-7.38-60.38-49.73-70.45-67.41-3.02-5.31-4.22-7.2-7.57-12.41-9.6-14.95-25.32-43.63-29.91-60-1.74-6.21-1.89-15.91-3.15-22.82-.32-1.73.22-3.75-.81-4.15C41.19,184.26,154.74,61.21,304.78,18.45Z" style="fill:url(#d);"/><path d="M421.91,251.08c7.77-4.19,20.68,1.4,27.97,5.99,9.77.66,20.37,9.42,27.96,15.98,16.7,14.45,29.97,35.06,36.98,55.94,1.86,3.6,1.25,9.9,6.52,10.96,8.58,1.72,34.13-.59,43.16-2.75,1.65-.4,2.49-.51,3.27-2.22-.15.58.15,1.43,0,2-23.17,85.76-87.41,158.51-169.84,191.29-12.02,4.78-25.18,7.54-36.92,12.03-1.91.73-4.06,1.5-5.03,3.47-.15-.28-1.41-.82-2-2-9.03-18.04-22-59.19-20.98-78.92.4-4.91-.41-8.43-2-12.99-1.77-6.23-1.78-27.52-1.05-34.51.21-2.02.11-3.74,1.57-5.42,1.67-1.92,23.87-8.32,29.12-10.84,54.61-26.23,79.59-90.64,61.26-148.03Z" style="fill:url(#e); stroke:url(#f); stroke-miterlimit:10;"/><path d="M428.9,249.09c12-2.03,29.12,3.11,40.22,8.23,26.62,12.27,40.09,44.54,45.69,71.69-16.56-32.14-30.92-55.2-64.93-71.93-6.48-3.97-13.48-6.63-20.98-7.99Z" style="fill:#26596c;"/><path d="M428.9,249.09c9.24-.03,14.13,1.54,20.98,7.99-4.13-2.03-10.04-3.61-14.66-4.82-4.35-1.14-8.05-4.19-13.31-1.18-.1-.31.11-.72,0-1,1.55-1.75,4.85-.99,6.99-1Z" style="fill:#f1b05b;"/><path d="M331,449.89c2.08,7.31,2.57,1.98,2,12.99l-2-12.99Z" style="fill:#f1b05d;"/><path d="M399.93,214.12l-3.52,3.62c-74,32.67-103.34,117.86-103.41,193.75l-1.96,4.43c-2.13-1.12-.36-6.24-1.04-6.95-.56-.59-13.31-2.7-15.92-3.56-52.35-17.28-90.5-67.1-85.64-123.57,7.8-90.68,110.13-139.83,186.25-88.93,9.27,6.2,16.18,14.9,25.24,21.21Z" style="fill:url(#g);"/><path d="M400.93,214.12c2.53,8.08,9.59,15.05,13.6,22.35,1.02,1.87,7.09,12.84,7.38,13.62.65.33.65.66,0,1,.67.44,1.31.9,1.85,1.46s1,1.06,1.18,1.66c12.76,42.79.62,91.86-30.86,123.52-18.61,18.72-37.95,25.78-61.13,33.59-2.75,2.9-1.15,30.91-.39,36.34l3.26,23.45c1.35,25.65,8.96,44.61,19.1,68.06l-.95,2.62c-9.5,2.08-22.02,5.83-31.62,5.94-1.94.02-2.96-.83-4.34-1.95-11.03-25.09-16.51-45.92-20.98-72.93l-4-26.97c-1.02-9.7-1.83-20.22-2-29.97-1.36-79.49,30.42-170.81,108.89-201.8.29-.11.71.11,1,0Z" style="fill:url(#h);"/><path d="M821.37,312.33c-50.91,4.44-102.68,11.72-154.71,16.68-32.91,3.14-65.92,5.62-98.9,7.99-.55-.36-.55-1.03,0-1.99l-.51-6.26c32-135.24-44.33-281.07-179.91-320.95l-5.31-3.65c184.19-16.37,357.11,90.71,424.54,262.9,5.79,14.8,10.74,29.92,14.8,45.28Z" style="fill:url(#i);"/><path d="M567.76,335c-.27,1.19-.78,2.98-1.62,3.79-2.45,2.37-38.5,4.6-43.4,3.42-6.8-1.64-10.54-6.99-7.93-13.2l-9.71-25.8c-11.45-34.16-41.67-52.79-76.2-54.12-2.27.21-4.6.55-6.99,1l-2.11.23c-6.35-11.4-13.05-22.62-20.09-33.68l1.22-2.51c6.06-2.33,15.31-4.54,21.78-5.7,11.89-2.13,26.64-1.24,37.38-4.59,13.41-4.18,3.47-15.49-2.72-21.67-17.1-17.07-42.43-33.12-61.44-49.44-25.32-21.74-52.08-47.26-71.13-74.72-8.02-11.56-16.43-24.97-20.01-39.55,25.24-7.19,51.1-11.98,77.24-14.31,52.35,14.81,98.18,44.34,132.76,86.63,54.7,66.89,74.72,160.32,52.97,244.23Z" style="fill:url(#j);"/><path d="M827.92,496.51c-17.68,1.66-35-3.41-54.71-3.85-75.61-1.7-153.55-14.11-229.88-15.85-4.1-.09-15.76-.7-18.82.25-4.2,1.3-2.28,7.76-2.8,11.18-3.91,25.24-8.23,52.53-23.88,73.53-1.04,7.85-11.21,14.98-17.95,19.19-33.35,20.85-80.33,11.75-108.4-14.16-6.16-5.69-15.43-14.77-15.5-23.01.61-1.69.51-2.66-.35-2.64.48-.91,1.71-1.5,3.12-2.09,25.93-7.88,50.11-16.08,74.09-29.93,63.17-36.5,110.83-97.22,131.45-167.18l3.47-4.96c32.52-5.52,65.92-8.06,98.9-7.99l6.96-2.02c46.78-6.38,93.67-11.51,140.68-15.37l7.07.71c15.13,57.15,16.3,125.88,6.55,184.19Z" style="fill:url(#k);"/><path d="M355.98,543.8c-.67-1.13-.72-1.97-.35-2.64.86-.02.96.95.35,2.64Z" style="fill:url(#l);"/><path d="M277.69,810.55c22.96-25.66,54.12-44.27,84.26-58.49,27.51-12.98,61.1-25.24,90.7-32.17,4.43-1.04,16.1-4.19,19.73-4.09,8.05.22,17.42,19.48,25.49,22.25,5.29,1.81,10.45-1.47,13.92.05,1.86.81,9.63,12.55,12.52,14.55-.41,5.64,2.34,10.57.26,16.2-1.96,5.32-14.64,5.77-5.23,14.67,4.76,4.5,15.27,10.02,19.14,14.33,2.61,2.91,5.99,12.8,8.46,17.19-87.77,28.37-182.48,26.8-269.26-4.49Z" style="fill:url(#m);"/><path d="M515.85,617.26c-2.36,7.13-11.38,18.64-19.41,18.42-1.78-.05-3.58-1.5-5.35-1.73-27.45-3.44-50.17-2.32-76.65-4.26-44.68-3.27-77.52-41.05-95.42-78.9-.69-1.46-.52-3.9-1-5,10.88.12,22.39-2.62,33.35-5.45l3.28-1.8c.71-.43,1.94,3.57,1.33,5.26.07,8.24,9.34,17.32,15.5,23.01,28.07,25.91,75.05,35.01,108.4,14.16,6.74-4.21,16.91-11.34,17.95-19.19,16.21,10.32,23.93,37.69,18.02,55.48Z" style="fill:url(#n);"/><path d="M827.92,496.51c-25.64,153.38-133.02,270.68-280.98,318.52l-2.23.05c-4.34-14.6-12.46-20.95-25.15-28.73-8.66-7.92-6.81-11.19,2.31-17.01,2.37-2.59,1.22-13.57-.14-16.33-.5-1-10.01-12.83-10.8-13.15-8.46,2.08-15.3.49-20.5-4.78-5.23-7.52-11.3-13.29-18.21-17.3-67.47,14.03-139.27,41.06-189.67,90.43l-4.87,2.33C83.79,740.65-29.79,539.38,10.61,337.26c.8-.57,1.58-.65,2.33-.11.69,20.54,5.98,35.7,15.18,54.16,23.13,46.37,57.23,94.36,106.07,115.79,37.45,22.58,78.68,35.56,122.53,38.91,0,0,43.05,1.82,61.18,2.69l1.12,2.09,3.23,2.1c19.59,39.91,54.6,76.12,102.06,75.41,22.42.32,44.78,1.55,67.1,3.69,7.79,4.78,15.34-2.7,19.35-9.1,10.89-17.36,3.35-45.94-12.46-58.37l-.47-2.74c15.65-21,19.97-48.29,23.88-73.53.52-3.42-1.4-9.88,2.8-11.18,3.06-.95,14.72-.34,18.82-.25,76.33,1.74,154.27,14.15,229.88,15.85,19.71.44,37.92,3.76,54.71,3.85Z" style="fill:url(#o);"/><circle cx="418.86" cy="418.86" r="416.36" style="fill:none; stroke:#fff; stroke-miterlimit:10; stroke-width:5px;"/></g></svg>