<svg width="288" height="477" viewBox="0 0 288 477" fill="none" xmlns="http://www.w3.org/2000/svg">
<g filter="url(#filter0_f_26_2515)">
<path d="M92.3024 454.83V451.225H91.2944V450.917C91.6677 450.898 91.936 450.828 92.0994 450.707C92.2674 450.581 92.3724 450.347 92.4144 450.007H92.7574V454.83H92.3024ZM95.3974 454.536C95.8267 454.536 96.1511 454.351 96.3704 453.983C96.5897 453.614 96.6994 453.096 96.6994 452.429C96.6994 451.775 96.5851 451.26 96.3564 450.882C96.1324 450.504 95.8127 450.315 95.3974 450.315C94.9774 450.315 94.6531 450.501 94.4244 450.875C94.2004 451.243 94.0884 451.761 94.0884 452.429C94.0884 453.082 94.2004 453.598 94.4244 453.976C94.6531 454.349 94.9774 454.536 95.3974 454.536ZM95.3904 454.928C94.8304 454.928 94.3941 454.704 94.0814 454.256C93.7734 453.808 93.6194 453.199 93.6194 452.429C93.6194 451.654 93.7781 451.045 94.0954 450.602C94.4174 450.154 94.8514 449.93 95.3974 449.93C95.9434 449.93 96.3751 450.151 96.6924 450.595C97.0097 451.038 97.1684 451.649 97.1684 452.429C97.1684 453.203 97.0121 453.815 96.6994 454.263C96.3914 454.706 95.9551 454.928 95.3904 454.928ZM100.481 454.557C100.159 454.804 99.7624 454.928 99.2911 454.928C98.8198 454.928 98.4184 454.802 98.0871 454.55C97.7558 454.298 97.5901 453.943 97.5901 453.486C97.5901 453.168 97.6741 452.905 97.8421 452.695C98.0148 452.485 98.2458 452.328 98.5351 452.226V452.205C98.3111 452.116 98.1361 451.983 98.0101 451.806C97.8841 451.624 97.8211 451.409 97.8211 451.162C97.8211 450.802 97.9588 450.508 98.2341 450.28C98.5141 450.046 98.8618 449.93 99.2771 449.93C99.7064 449.93 100.056 450.046 100.327 450.28C100.598 450.513 100.733 450.807 100.733 451.162C100.733 451.404 100.668 451.617 100.537 451.799C100.411 451.976 100.236 452.109 100.012 452.198V452.219C100.287 452.307 100.514 452.466 100.691 452.695C100.873 452.919 100.964 453.182 100.964 453.486C100.964 453.948 100.803 454.305 100.481 454.557ZM99.2911 454.543C99.6644 454.543 99.9608 454.445 100.18 454.249C100.399 454.053 100.509 453.798 100.509 453.486C100.509 453.164 100.397 452.905 100.173 452.709C99.9538 452.513 99.6528 452.415 99.2701 452.415C98.8921 452.415 98.5958 452.513 98.3811 452.709C98.1664 452.905 98.0591 453.164 98.0591 453.486C98.0591 453.803 98.1664 454.06 98.3811 454.256C98.6004 454.447 98.9038 454.543 99.2911 454.543ZM99.2701 452.044C99.5781 452.044 99.8231 451.962 100.005 451.799C100.192 451.635 100.285 451.43 100.285 451.183C100.285 450.926 100.194 450.716 100.012 450.553C99.8348 450.389 99.5898 450.308 99.2771 450.308C98.9644 450.308 98.7171 450.389 98.5351 450.553C98.3578 450.716 98.2691 450.926 98.2691 451.183C98.2691 451.435 98.3578 451.642 98.5351 451.806C98.7124 451.964 98.9574 452.044 99.2701 452.044ZM103.17 454.536C103.599 454.536 103.924 454.351 104.143 453.983C104.362 453.614 104.472 453.096 104.472 452.429C104.472 451.775 104.358 451.26 104.129 450.882C103.905 450.504 103.585 450.315 103.17 450.315C102.75 450.315 102.426 450.501 102.197 450.875C101.973 451.243 101.861 451.761 101.861 452.429C101.861 453.082 101.973 453.598 102.197 453.976C102.426 454.349 102.75 454.536 103.17 454.536ZM103.163 454.928C102.603 454.928 102.167 454.704 101.854 454.256C101.546 453.808 101.392 453.199 101.392 452.429C101.392 451.654 101.551 451.045 101.868 450.602C102.19 450.154 102.624 449.93 103.17 449.93C103.716 449.93 104.148 450.151 104.465 450.595C104.782 451.038 104.941 451.649 104.941 452.429C104.941 453.203 104.785 453.815 104.472 454.263C104.164 454.706 103.728 454.928 103.163 454.928ZM105.571 455.992V451.211H106.005V451.834H106.019C106.294 451.367 106.703 451.134 107.244 451.134C107.687 451.134 108.047 451.302 108.322 451.638C108.602 451.974 108.742 452.436 108.742 453.024C108.742 453.588 108.604 454.046 108.329 454.396C108.058 454.746 107.687 454.921 107.216 454.921C106.698 454.921 106.299 454.715 106.019 454.305H106.005V455.992H105.571ZM107.195 454.557C107.55 454.557 107.823 454.414 108.014 454.13C108.205 453.84 108.301 453.474 108.301 453.031C108.301 452.569 108.203 452.198 108.007 451.918C107.816 451.638 107.543 451.498 107.188 451.498C106.801 451.498 106.5 451.642 106.285 451.932C106.075 452.221 105.97 452.59 105.97 453.038C105.97 453.5 106.073 453.868 106.278 454.144C106.488 454.419 106.794 454.557 107.195 454.557ZM108.763 454.83L110.121 452.919L108.91 451.211H109.414L110.359 452.604H110.373L111.318 451.211H111.808L110.632 452.884L112.018 454.83H111.507L110.38 453.199H110.366L109.253 454.83H108.763Z" fill="white"/>
</g>
<g filter="url(#filter1_f_26_2515)">
<path d="M268.871 402.88V396.568H267.191V396.148C267.871 396.108 268.331 395.992 268.571 395.8C268.811 395.608 268.967 395.212 269.039 394.612H269.483V402.88H268.871ZM273.856 403.036C273.152 403.036 272.552 402.812 272.056 402.364C271.344 401.732 270.988 400.516 270.988 398.716C270.988 397.476 271.248 396.464 271.768 395.68C272.288 394.888 273.02 394.492 273.964 394.492C274.604 394.492 275.116 394.68 275.5 395.056C275.884 395.424 276.108 395.912 276.172 396.52H275.548C275.508 396.08 275.348 395.724 275.068 395.452C274.788 395.172 274.424 395.032 273.976 395.032C273.184 395.032 272.588 395.4 272.188 396.136C271.788 396.864 271.596 397.856 271.612 399.112H271.636C272.124 398.136 272.868 397.648 273.868 397.648C274.62 397.648 275.232 397.892 275.704 398.38C276.176 398.86 276.412 399.492 276.412 400.276C276.412 401.076 276.176 401.736 275.704 402.256C275.24 402.776 274.624 403.036 273.856 403.036ZM273.832 402.508C274.416 402.508 274.884 402.3 275.236 401.884C275.596 401.468 275.776 400.936 275.776 400.288C275.776 399.648 275.6 399.136 275.248 398.752C274.904 398.368 274.44 398.176 273.856 398.176C273.28 398.176 272.796 398.38 272.404 398.788C272.02 399.196 271.828 399.712 271.828 400.336C271.828 400.992 272.012 401.52 272.38 401.92C272.748 402.312 273.232 402.508 273.832 402.508Z" fill="white"/>
</g>
<g filter="url(#filter2_f_26_2515)">
<path d="M212.918 459.998C212.198 459.998 211.61 459.802 211.154 459.41C210.698 459.01 210.45 458.478 210.41 457.814H211.202C211.242 458.278 211.41 458.646 211.706 458.918C212.01 459.19 212.406 459.326 212.894 459.326C213.502 459.326 213.974 459.146 214.31 458.786C214.862 458.218 215.146 457.158 215.162 455.606H215.138C214.65 456.462 213.902 456.89 212.894 456.89C212.142 456.89 211.518 456.638 211.022 456.134C210.526 455.622 210.278 454.982 210.278 454.214C210.27 453.43 210.522 452.77 211.034 452.234C211.546 451.698 212.19 451.43 212.966 451.43C213.678 451.43 214.29 451.646 214.802 452.078C215.21 452.414 215.498 452.882 215.666 453.482C215.834 454.074 215.918 454.834 215.918 455.762C215.918 457.394 215.558 458.566 214.838 459.278C214.342 459.758 213.702 459.998 212.918 459.998ZM212.954 456.242C213.546 456.242 214.03 456.05 214.406 455.666C214.782 455.282 214.97 454.786 214.97 454.178C214.97 453.554 214.782 453.05 214.406 452.666C214.038 452.274 213.562 452.078 212.978 452.078C212.402 452.078 211.934 452.278 211.574 452.678C211.214 453.07 211.034 453.574 211.034 454.19C211.034 454.798 211.21 455.294 211.562 455.678C211.922 456.054 212.386 456.242 212.954 456.242Z" fill="white"/>
</g>
<g opacity="0.41" filter="url(#filter3_f_26_2515)">
<mask id="path-4-outside-1_26_2515" maskUnits="userSpaceOnUse" x="3.19922" y="3" width="246" height="433" fill="black">
<rect fill="white" x="3.19922" y="3" width="246" height="433"/>
<path d="M3.19922 33C3.19922 16.4315 16.6307 3 33.1992 3H217.266C233.835 3 247.266 16.4315 247.266 33V404.185C247.266 420.754 233.835 434.185 217.266 434.185H33.1992C16.6307 434.185 3.19922 420.754 3.19922 404.185V33Z"/>
</mask>
<path fill-rule="evenodd" clip-rule="evenodd" d="M3.19922 404.185C3.19922 406.188 3.40928 408.144 3.80927 410.033L3.75201 410.044C3.38916 408.147 3.19922 406.188 3.19922 404.185ZM8.11584 420.945L8.51821 420.676C9.57273 422.148 10.7645 423.521 12.0757 424.778C13.5486 426.19 15.1723 427.455 16.9211 428.549L16.8089 428.717L16.2901 429.492C13.0497 427.195 10.2698 424.291 8.11584 420.945ZM34.1992 435.185H40.8687V434.685V433.685V433.185H33.1992C31.2616 433.185 29.3668 433.008 27.5314 432.669L27.4414 433.124L27.2473 434.105L27.1909 434.39C29.1303 434.838 31.1394 435.104 33.1992 435.17C33.5312 435.18 33.8646 435.185 34.1992 435.185ZM56.2076 433.185V433.685V434.685V435.185H71.5466V434.685V433.685V433.185H56.2076ZM86.8855 433.185V433.685V434.685V435.185H102.224V434.685V433.685V433.185H86.8855ZM117.563 433.185V433.685V434.685V435.185H132.902V434.685V433.685V433.185H117.563ZM148.241 433.185V433.685V434.685V435.185H163.58V434.685V433.685V433.185H148.241ZM178.919 433.185V433.685V434.685V435.185H194.258V434.685V433.685V433.185H178.919ZM209.597 433.185V433.685V434.685V435.185H217.266C219.336 435.185 221.358 434.983 223.315 434.595L223.218 434.105L223.024 433.124L222.927 432.633C221.097 432.996 219.205 433.185 217.266 433.185H209.597ZM234.213 429.548L233.657 428.717L233.379 428.301C236.542 426.184 239.265 423.461 241.382 420.298L241.798 420.576L242.629 421.132L243.044 421.41C240.781 424.79 237.871 427.7 234.491 429.963L234.213 429.548ZM247.186 410.137L246.205 409.943L245.714 409.846C246.077 408.016 246.266 406.124 246.266 404.185V396.452H246.766H247.766H248.266V404.185C248.266 406.255 248.064 408.277 247.676 410.234L247.186 410.137ZM248.266 380.986V365.52H247.766H246.766H246.266V380.986H246.766H247.766H248.266ZM246.266 350.054H246.766H247.766H248.266V334.588H247.766H246.766H246.266V350.054ZM246.266 319.122H246.766H247.766H248.266V303.656H247.766H246.766H246.266V319.122ZM246.266 288.19H246.766H247.766H248.266V272.724H247.766H246.766H246.266V288.19ZM246.266 257.258H246.766H247.766H248.266V241.792H247.766H246.766H246.266V257.258ZM246.266 226.326H246.766H247.766H248.266V210.86H247.766H246.766H246.266V226.326ZM246.266 195.394H246.766H247.766H248.266V179.928H247.766H246.766H246.266V195.394ZM246.266 164.462H246.766H247.766H248.266V148.995H247.766H246.766H246.266V164.462ZM246.266 133.529H246.766H247.766H248.266V118.063H247.766H246.766H246.266V133.529ZM246.266 102.597H246.766H247.766H248.266V87.1312H247.766H246.766H246.266V102.597ZM246.266 71.6651H246.766H247.766H248.266V56.1991H247.766H246.766H246.266V71.6651ZM246.266 40.733H246.766H247.766H248.266V34C248.266 33.6654 248.261 33.332 248.251 33C248.185 30.9402 247.919 28.9311 247.471 26.9917L247.186 27.0481L246.205 27.2422L245.75 27.3322C246.089 29.1676 246.266 31.0624 246.266 33V40.733ZM237.859 11.8765C239.271 13.3494 240.536 14.973 241.63 16.7219L241.798 16.6097L242.573 16.0908C240.276 12.8505 237.372 10.0706 234.026 7.91662L233.757 8.319C235.229 9.3735 236.602 10.5653 237.859 11.8765ZM223.114 3.61005L223.125 3.55279C221.228 3.18994 219.269 3 217.266 3C219.269 3 221.225 3.21006 223.114 3.61005Z" fill="#D3D3D3" mask="url(#path-4-outside-1_26_2515)"/>
</g>
<g filter="url(#filter4_f_26_2515)">
<path d="M261.405 221.422L257.8 221.422L257.8 222.43L257.492 222.43C257.474 222.056 257.404 221.788 257.282 221.625C257.156 221.457 256.923 221.352 256.582 221.31L256.582 220.967L261.405 220.967L261.405 221.422ZM261.503 218.578C261.503 218.998 261.389 219.341 261.16 219.607C260.927 219.873 260.617 220.018 260.229 220.041L260.229 219.579C260.5 219.556 260.715 219.458 260.873 219.285C261.032 219.108 261.111 218.877 261.111 218.592C261.111 218.238 261.006 217.962 260.796 217.766C260.465 217.444 259.847 217.279 258.941 217.269L258.941 217.283C259.441 217.568 259.69 218.004 259.69 218.592C259.69 219.031 259.543 219.395 259.249 219.684C258.951 219.974 258.577 220.118 258.129 220.118C257.672 220.123 257.287 219.976 256.974 219.677C256.662 219.379 256.505 219.003 256.505 218.55C256.505 218.135 256.631 217.778 256.883 217.479C257.079 217.241 257.352 217.073 257.702 216.975C258.048 216.877 258.491 216.828 259.032 216.828C259.984 216.828 260.668 217.038 261.083 217.458C261.363 217.748 261.503 218.121 261.503 218.578ZM259.312 218.557C259.312 218.212 259.2 217.93 258.976 217.71C258.752 217.491 258.463 217.381 258.108 217.381C257.744 217.381 257.45 217.491 257.226 217.71C256.998 217.925 256.883 218.203 256.883 218.543C256.883 218.879 257 219.152 257.233 219.362C257.462 219.572 257.756 219.677 258.115 219.677C258.47 219.677 258.759 219.575 258.983 219.369C259.203 219.159 259.312 218.889 259.312 218.557ZM261.405 216.38C261.233 216.375 261.069 216.354 260.915 216.317C260.761 216.28 260.631 216.238 260.523 216.191C260.411 216.144 260.297 216.07 260.18 215.967C260.059 215.864 259.968 215.783 259.907 215.722C259.842 215.661 259.758 215.559 259.655 215.414C259.553 215.265 259.485 215.162 259.452 215.106C259.415 215.045 259.347 214.933 259.249 214.77C259.007 214.364 258.827 214.103 258.71 213.986C258.5 213.776 258.237 213.671 257.919 213.671C257.602 213.671 257.352 213.764 257.17 213.951C256.988 214.138 256.897 214.39 256.897 214.707C256.897 215.048 257 215.314 257.205 215.505C257.42 215.701 257.735 215.801 258.15 215.806L258.15 216.268C257.632 216.268 257.231 216.126 256.946 215.841C256.657 215.552 256.512 215.164 256.512 214.679C256.512 214.236 256.645 213.881 256.911 213.615C257.173 213.344 257.504 213.209 257.905 213.209C258.12 213.209 258.309 213.239 258.472 213.3C258.636 213.356 258.787 213.459 258.927 213.608C259.063 213.753 259.165 213.876 259.235 213.979C259.305 214.077 259.406 214.238 259.536 214.462C259.55 214.485 259.562 214.502 259.571 214.511C259.576 214.52 259.583 214.534 259.592 214.553C259.602 214.572 259.611 214.588 259.62 214.602C259.728 214.784 259.816 214.926 259.886 215.029C259.956 215.132 260.05 215.253 260.166 215.393C260.283 215.528 260.409 215.636 260.544 215.715C260.68 215.79 260.827 215.839 260.985 215.862L260.985 213.272L261.405 213.272L261.405 216.38ZM261.111 210.923C261.111 210.494 260.927 210.169 260.558 209.95C260.19 209.731 259.672 209.621 259.004 209.621C258.351 209.621 257.835 209.735 257.457 209.964C257.079 210.188 256.89 210.508 256.89 210.923C256.89 211.343 257.077 211.667 257.45 211.896C257.819 212.12 258.337 212.232 259.004 212.232C259.658 212.232 260.173 212.12 260.551 211.896C260.925 211.667 261.111 211.343 261.111 210.923ZM261.503 210.93C261.503 211.49 261.279 211.926 260.831 212.239C260.383 212.547 259.774 212.701 259.004 212.701C258.23 212.701 257.621 212.542 257.177 212.225C256.729 211.903 256.505 211.469 256.505 210.923C256.505 210.377 256.727 209.945 257.17 209.628C257.614 209.311 258.225 209.152 259.004 209.152C259.779 209.152 260.39 209.308 260.838 209.621C261.282 209.929 261.503 210.365 261.503 210.93ZM262.567 208.522L257.786 208.522L257.786 208.088L258.409 208.088L258.409 208.074C257.943 207.799 257.709 207.39 257.709 206.849C257.709 206.406 257.877 206.046 258.213 205.771C258.549 205.491 259.011 205.351 259.599 205.351C260.164 205.351 260.621 205.489 260.971 205.764C261.321 206.035 261.496 206.406 261.496 206.877C261.496 207.395 261.291 207.794 260.88 208.074L260.88 208.088L262.567 208.088L262.567 208.522ZM261.132 206.898C261.132 206.543 260.99 206.27 260.705 206.079C260.416 205.888 260.05 205.792 259.606 205.792C259.144 205.792 258.773 205.89 258.493 206.086C258.213 206.277 258.073 206.55 258.073 206.905C258.073 207.292 258.218 207.593 258.507 207.808C258.797 208.018 259.165 208.123 259.613 208.123C260.075 208.123 260.444 208.02 260.719 207.815C260.995 207.605 261.132 207.299 261.132 206.898ZM261.405 205.33L259.494 203.972L257.786 205.183L257.786 204.679L259.179 203.734L259.179 203.72L257.786 202.775L257.786 202.285L259.459 203.461L261.405 202.075L261.405 202.586L259.774 203.713L259.774 203.727L261.405 204.84L261.405 205.33Z" fill="white"/>
</g>
<defs>
<filter id="filter0_f_26_2515" x="89.3943" y="448.03" width="24.5236" height="9.86201" filterUnits="userSpaceOnUse" color-interpolation-filters="sRGB">
<feFlood flood-opacity="0" result="BackgroundImageFix"/>
<feBlend mode="normal" in="SourceGraphic" in2="BackgroundImageFix" result="shape"/>
<feGaussianBlur stdDeviation="0.95" result="effect1_foregroundBlur_26_2515"/>
</filter>
<filter id="filter1_f_26_2515" x="265.291" y="392.592" width="13.0212" height="12.3441" filterUnits="userSpaceOnUse" color-interpolation-filters="sRGB">
<feFlood flood-opacity="0" result="BackgroundImageFix"/>
<feBlend mode="normal" in="SourceGraphic" in2="BackgroundImageFix" result="shape"/>
<feGaussianBlur stdDeviation="0.95" result="effect1_foregroundBlur_26_2515"/>
</filter>
<filter id="filter2_f_26_2515" x="208.366" y="449.53" width="9.45198" height="12.3679" filterUnits="userSpaceOnUse" color-interpolation-filters="sRGB">
<feFlood flood-opacity="0" result="BackgroundImageFix"/>
<feBlend mode="normal" in="SourceGraphic" in2="BackgroundImageFix" result="shape"/>
<feGaussianBlur stdDeviation="0.95" result="effect1_foregroundBlur_26_2515"/>
</filter>
<filter id="filter3_f_26_2515" x="0.799219" y="0.6" width="249.867" height="436.986" filterUnits="userSpaceOnUse" color-interpolation-filters="sRGB">
<feFlood flood-opacity="0" result="BackgroundImageFix"/>
<feBlend mode="normal" in="SourceGraphic" in2="BackgroundImageFix" result="shape"/>
<feGaussianBlur stdDeviation="1.2" result="effect1_foregroundBlur_26_2515"/>
</filter>
<filter id="filter4_f_26_2515" x="254.605" y="200.175" width="9.86201" height="24.1545" filterUnits="userSpaceOnUse" color-interpolation-filters="sRGB">
<feFlood flood-opacity="0" result="BackgroundImageFix"/>
<feBlend mode="normal" in="SourceGraphic" in2="BackgroundImageFix" result="shape"/>
<feGaussianBlur stdDeviation="0.95" result="effect1_foregroundBlur_26_2515"/>
</filter>
</defs>
</svg>
