<svg width="219" height="306" viewBox="0 0 219 306" fill="none" xmlns="http://www.w3.org/2000/svg">
<g filter="url(#filter0_d_26_2514)">
<g filter="url(#filter1_d_26_2514)">
<g opacity="0.61" filter="url(#filter2_f_26_2514)">
<path d="M20.4817 286.674C20.5549 286.94 20.8302 287.097 21.0964 287.023L25.4351 285.829C25.7013 285.756 25.8578 285.481 25.7845 285.215C25.7112 284.948 25.436 284.792 25.1697 284.865L21.3131 285.927L20.2517 282.07C20.1784 281.804 19.9032 281.647 19.637 281.721C19.3707 281.794 19.2143 282.069 19.2876 282.335L20.4817 286.674ZM177.482 11.8673C177.409 11.6011 177.134 11.4446 176.867 11.5179L172.529 12.712C172.262 12.7853 172.106 13.0605 172.179 13.3268C172.253 13.593 172.528 13.7495 172.794 13.6762L176.651 12.6148L177.712 16.4714C177.785 16.7376 178.061 16.894 178.327 16.8208C178.593 16.7475 178.749 16.4722 178.676 16.206L177.482 11.8673ZM176.565 11.7529L175.565 13.5128L176.434 14.0069L177.435 12.2471L176.565 11.7529ZM171.564 20.5523L169.564 24.0721L170.433 24.5662L172.434 21.0465L171.564 20.5523ZM165.563 31.1116L163.562 34.6314L164.432 35.1255L166.432 31.6057L165.563 31.1116ZM159.561 41.6709L157.561 45.1907L158.43 45.6848L160.431 42.165L159.561 41.6709ZM153.56 52.2302L151.559 55.7499L152.429 56.2441L154.429 52.7243L153.56 52.2302ZM147.559 62.7895L145.558 66.3092L146.427 66.8033L148.428 63.2836L147.559 62.7895ZM141.557 73.3487L139.557 76.8685L140.426 77.3626L142.427 73.8429L141.557 73.3487ZM135.556 83.908L133.555 87.4278L134.425 87.9219L136.425 84.4021L135.556 83.908ZM129.554 94.4673L127.554 97.9871L128.423 98.4812L130.424 94.9614L129.554 94.4673ZM123.553 105.027L121.553 108.546L122.422 109.04L124.422 105.521L123.553 105.027ZM117.552 115.586L115.551 119.106L116.421 119.6L118.421 116.08L117.552 115.586ZM111.55 126.145L109.55 129.665L110.419 130.159L112.42 126.639L111.55 126.145ZM105.549 136.704L103.548 140.224L104.418 140.718L106.418 137.199L105.549 136.704ZM99.5474 147.264L98.5472 149.024L99.4166 149.518L100.417 147.758L99.5474 147.264ZM98.5472 149.024L97.5469 150.783L98.4163 151.278L99.4166 149.518L98.5472 149.024ZM93.546 157.823L91.5455 161.343L92.4149 161.837L94.4154 158.317L93.546 157.823ZM87.5446 168.382L85.5442 171.902L86.4135 172.396L88.414 168.876L87.5446 168.382ZM81.5432 178.942L79.5428 182.461L80.4122 182.955L82.4126 179.436L81.5432 178.942ZM75.5418 189.501L73.5414 193.021L74.4108 193.515L76.4112 189.995L75.5418 189.501ZM69.5404 200.06L67.54 203.58L68.4094 204.074L70.4098 200.554L69.5404 200.06ZM63.539 210.619L61.5386 214.139L62.408 214.633L64.4084 211.114L63.539 210.619ZM57.5376 221.179L55.5372 224.698L56.4066 225.193L58.407 221.673L57.5376 221.179ZM51.5363 231.738L49.5358 235.258L50.4052 235.752L52.4056 232.232L51.5363 231.738ZM45.5349 242.297L43.5344 245.817L44.4038 246.311L46.4043 242.791L45.5349 242.297ZM39.5335 252.857L37.533 256.376L38.4024 256.87L40.4029 253.351L39.5335 252.857ZM33.5321 263.416L31.5316 266.936L32.401 267.43L34.4015 263.91L33.5321 263.416ZM27.5307 273.975L25.5302 277.495L26.3996 277.989L28.4001 274.469L27.5307 273.975ZM21.5293 284.534L20.529 286.294L21.3984 286.788L22.3987 285.028L21.5293 284.534Z" fill="#747474"/>
</g>
<g filter="url(#filter3_d_26_2514)">
<path d="M50.0405 235.031L57.9038 232.832L55.705 224.969L47.8417 227.168L50.0405 235.031ZM154.155 50.084L144.218 55.9659L154.281 61.6303L154.155 50.084ZM53.7442 230.491L104.385 140.533L102.642 139.551L52.0013 229.509L53.7442 230.491ZM104.385 140.533L150.611 58.4172L148.869 57.4361L102.642 139.551L104.385 140.533Z" fill="url(#paint0_linear_26_2514)"/>
</g>
<path d="M149.281 218.004C117.514 218.004 93.593 202.54 112.901 190.082L91.6782 185.315H98.6989L120.013 190.082C100.705 198.913 121.799 211.84 149.19 211.84C165.51 211.84 176.634 203.771 176.634 192.077V191.986C176.634 181.923 170.708 176.756 155.481 173.22L142.26 170.138C124.207 165.967 115.91 158.624 115.91 146.295V146.204C115.91 131.246 129.404 120.639 148.187 120.639C167.607 120.639 180.281 131.79 182.196 148.561L182.287 149.377H175.449L175.358 148.743C173.534 135.507 163.322 126.804 148.187 126.804C133.416 126.804 123.022 134.872 123.022 146.114V146.204C123.022 155.179 129.131 160.437 144.357 163.973L157.578 167.055C176.178 171.407 183.837 178.569 183.837 191.623V191.714C183.837 207.216 169.431 218.004 149.281 218.004Z" fill="white"/>
<path d="M149.281 218.004C117.514 218.004 93.593 202.54 112.901 190.082L91.6782 185.315H98.6989L120.013 190.082C100.705 198.913 121.799 211.84 149.19 211.84C165.51 211.84 176.634 203.771 176.634 192.077V191.986C176.634 181.923 170.708 176.756 155.481 173.22L142.26 170.138C124.207 165.967 115.91 158.624 115.91 146.295V146.204C115.91 131.246 129.404 120.639 148.187 120.639C167.607 120.639 180.281 131.79 182.196 148.561L182.287 149.377H175.449L175.358 148.743C173.534 135.507 163.322 126.804 148.187 126.804C133.416 126.804 123.022 134.872 123.022 146.114V146.204C123.022 155.179 129.131 160.437 144.357 163.973L157.578 167.055C176.178 171.407 183.837 178.569 183.837 191.623V191.714C183.837 207.216 169.431 218.004 149.281 218.004Z" fill="url(#paint1_linear_26_2514)"/>
<path d="M60.5993 163.317L49.524 90.2415L58.6519 92.1472L66.9901 155.193L67.1857 155.234L105.201 85.3616L114.199 87.2401L69.7924 165.236L60.5993 163.317Z" fill="white"/>
<path d="M60.5993 163.317L49.524 90.2415L58.6519 92.1472L66.9901 155.193L67.1857 155.234L105.201 85.3616L114.199 87.2401L69.7924 165.236L60.5993 163.317Z" fill="url(#paint2_linear_26_2514)"/>
<path d="M108.372 173.273C108.372 169.522 111.52 166.5 115.428 166.5C119.336 166.5 122.483 169.522 122.483 173.273C122.483 179.167 117.78 185.247 115.428 190.019C113.076 185.885 108.372 179.167 108.372 173.273Z" fill="url(#paint3_linear_26_2514)"/>
<path d="M111.9 173.556C111.9 171.602 113.474 170.028 115.428 170.028C117.382 170.028 118.956 171.602 118.956 173.556C118.956 175.51 117.382 177.084 115.428 177.084C113.474 177.084 111.9 175.51 111.9 173.556Z" fill="white"/>
<path d="M111.9 173.556C111.9 171.602 113.474 170.028 115.428 170.028C117.382 170.028 118.956 171.602 118.956 173.556C118.956 175.51 117.382 177.084 115.428 177.084C113.474 177.084 111.9 175.51 111.9 173.556Z" fill="url(#paint4_radial_26_2514)"/>
</g>
</g>
<g opacity="0.36" filter="url(#filter4_f_26_2514)">
<path d="M203 278.5V284L133 253.839V248.161L203 218V223.5L138.385 251V251.177L203 278.5Z" fill="url(#paint5_linear_26_2514)"/>
</g>
<g opacity="0.61" filter="url(#filter5_f_26_2514)">
<path d="M90.6464 250.646C90.4512 250.842 90.4512 251.158 90.6464 251.354L93.8284 254.536C94.0237 254.731 94.3403 254.731 94.5355 254.536C94.7308 254.34 94.7308 254.024 94.5355 253.828L91.7071 251L94.5355 248.172C94.7308 247.976 94.7308 247.66 94.5355 247.464C94.3403 247.269 94.0237 247.269 93.8284 247.464L90.6464 250.646ZM217 250.5H214.9V251.5H217V250.5ZM206.5 250.5H202.3V251.5H206.5V250.5ZM193.9 250.5H189.7V251.5H193.9V250.5ZM181.3 250.5H177.1V251.5H181.3V250.5ZM168.7 250.5H164.5V251.5H168.7V250.5ZM156.1 250.5H154V251.5H156.1V250.5ZM154 250.5H151.9V251.5H154V250.5ZM143.5 250.5H139.3V251.5H143.5V250.5ZM130.9 250.5H126.7V251.5H130.9V250.5ZM118.3 250.5H114.1V251.5H118.3V250.5ZM105.7 250.5H101.5V251.5H105.7V250.5ZM93.1 250.5H91V251.5H93.1V250.5Z" fill="#747474"/>
</g>
<path d="M24.7847 83L39 121L32.2078 121L21.5557 89.7596L21.4072 89.7596L10.7179 121L3.99999 121L18.1782 83L24.7847 83Z" fill="white"/>
<path d="M24.7847 83L39 121L32.2078 121L21.5557 89.7596L21.4072 89.7596L10.7179 121L3.99999 121L18.1782 83L24.7847 83Z" fill="url(#paint6_linear_26_2514)"/>
<g filter="url(#filter6_d_26_2514)">
<path d="M50.0405 235.031L57.9038 232.832L55.705 224.969L47.8417 227.168L50.0405 235.031ZM154.155 50.084L144.218 55.9659L154.281 61.6303L154.155 50.084ZM53.7442 230.491L104.385 140.533L102.642 139.551L52.0013 229.509L53.7442 230.491ZM104.385 140.533L150.611 58.4172L148.869 57.4361L102.642 139.551L104.385 140.533Z" fill="url(#paint7_linear_26_2514)"/>
</g>
<path d="M60.5993 163.317L49.524 90.2415L58.6519 92.1472L66.9901 155.193L67.1857 155.234L105.201 85.3616L114.199 87.2401L69.7924 165.236L60.5993 163.317Z" fill="white"/>
<path d="M60.5993 163.317L49.524 90.2415L58.6519 92.1472L66.9901 155.193L67.1857 155.234L105.201 85.3616L114.199 87.2401L69.7924 165.236L60.5993 163.317Z" fill="url(#paint8_linear_26_2514)"/>
<defs>
<filter id="filter0_d_26_2514" x="0.569531" y="0.799878" width="193.968" height="304.942" filterUnits="userSpaceOnUse" color-interpolation-filters="sRGB">
<feFlood flood-opacity="0" result="BackgroundImageFix"/>
<feColorMatrix in="SourceAlpha" type="matrix" values="0 0 0 0 0 0 0 0 0 0 0 0 0 0 0 0 0 0 127 0" result="hardAlpha"/>
<feOffset dx="-4" dy="4"/>
<feGaussianBlur stdDeviation="7.35"/>
<feComposite in2="hardAlpha" operator="out"/>
<feColorMatrix type="matrix" values="0 0 0 0 0 0 0 0 0 0 0 0 0 0 0 0 0 0 0.38 0"/>
<feBlend mode="normal" in2="BackgroundImageFix" result="effect1_dropShadow_26_2514"/>
<feBlend mode="normal" in="SourceGraphic" in2="effect1_dropShadow_26_2514" result="shape"/>
</filter>
<filter id="filter1_d_26_2514" x="0.569531" y="0.799878" width="193.968" height="304.942" filterUnits="userSpaceOnUse" color-interpolation-filters="sRGB">
<feFlood flood-opacity="0" result="BackgroundImageFix"/>
<feColorMatrix in="SourceAlpha" type="matrix" values="0 0 0 0 0 0 0 0 0 0 0 0 0 0 0 0 0 0 127 0" result="hardAlpha"/>
<feOffset dx="-4" dy="4"/>
<feGaussianBlur stdDeviation="7.35"/>
<feComposite in2="hardAlpha" operator="out"/>
<feColorMatrix type="matrix" values="0 0 0 0 0 0 0 0 0 0 0 0 0 0 0 0 0 0 0.38 0"/>
<feBlend mode="normal" in2="BackgroundImageFix" result="effect1_dropShadow_26_2514"/>
<feBlend mode="normal" in="SourceGraphic" in2="effect1_dropShadow_26_2514" result="shape"/>
</filter>
<filter id="filter2_f_26_2514" x="17.2695" y="9.49988" width="163.425" height="279.542" filterUnits="userSpaceOnUse" color-interpolation-filters="sRGB">
<feFlood flood-opacity="0" result="BackgroundImageFix"/>
<feBlend mode="normal" in="SourceGraphic" in2="BackgroundImageFix" result="shape"/>
<feGaussianBlur stdDeviation="1" result="effect1_foregroundBlur_26_2514"/>
</filter>
<filter id="filter3_d_26_2514" x="37.9417" y="40.184" width="126.239" height="204.747" filterUnits="userSpaceOnUse" color-interpolation-filters="sRGB">
<feFlood flood-opacity="0" result="BackgroundImageFix"/>
<feColorMatrix in="SourceAlpha" type="matrix" values="0 0 0 0 0 0 0 0 0 0 0 0 0 0 0 0 0 0 127 0" result="hardAlpha"/>
<feOffset/>
<feGaussianBlur stdDeviation="4.95"/>
<feComposite in2="hardAlpha" operator="out"/>
<feColorMatrix type="matrix" values="0 0 0 0 0 0 0 0 0 0 0 0 0 0 0 0 0 0 0.25 0"/>
<feBlend mode="normal" in2="BackgroundImageFix" result="effect1_dropShadow_26_2514"/>
<feBlend mode="normal" in="SourceGraphic" in2="effect1_dropShadow_26_2514" result="shape"/>
</filter>
<filter id="filter4_f_26_2514" x="124.6" y="209.6" width="86.8" height="82.8" filterUnits="userSpaceOnUse" color-interpolation-filters="sRGB">
<feFlood flood-opacity="0" result="BackgroundImageFix"/>
<feBlend mode="normal" in="SourceGraphic" in2="BackgroundImageFix" result="shape"/>
<feGaussianBlur stdDeviation="4.2" result="effect1_foregroundBlur_26_2514"/>
</filter>
<filter id="filter5_f_26_2514" x="88.5" y="245.318" width="130.5" height="11.364" filterUnits="userSpaceOnUse" color-interpolation-filters="sRGB">
<feFlood flood-opacity="0" result="BackgroundImageFix"/>
<feBlend mode="normal" in="SourceGraphic" in2="BackgroundImageFix" result="shape"/>
<feGaussianBlur stdDeviation="1" result="effect1_foregroundBlur_26_2514"/>
</filter>
<filter id="filter6_d_26_2514" x="37.9417" y="40.184" width="126.239" height="204.747" filterUnits="userSpaceOnUse" color-interpolation-filters="sRGB">
<feFlood flood-opacity="0" result="BackgroundImageFix"/>
<feColorMatrix in="SourceAlpha" type="matrix" values="0 0 0 0 0 0 0 0 0 0 0 0 0 0 0 0 0 0 127 0" result="hardAlpha"/>
<feOffset/>
<feGaussianBlur stdDeviation="4.95"/>
<feComposite in2="hardAlpha" operator="out"/>
<feColorMatrix type="matrix" values="0 0 0 0 0 0 0 0 0 0 0 0 0 0 0 0 0 0 0.25 0"/>
<feBlend mode="normal" in2="BackgroundImageFix" result="effect1_dropShadow_26_2514"/>
<feBlend mode="normal" in="SourceGraphic" in2="effect1_dropShadow_26_2514" result="shape"/>
</filter>
<linearGradient id="paint0_linear_26_2514" x1="156.807" y1="47.4654" x2="40.505" y2="249.847" gradientUnits="userSpaceOnUse">
<stop stop-color="#FFE4DD"/>
<stop offset="0.102" stop-color="#F58A4F"/>
<stop offset="0.526577" stop-color="#EF4634"/>
<stop offset="0.885" stop-color="#DA2351"/>
<stop offset="0.995" stop-color="#6B192E"/>
</linearGradient>
<linearGradient id="paint1_linear_26_2514" x1="150.269" y1="98.6979" x2="154.131" y2="209.659" gradientUnits="userSpaceOnUse">
<stop offset="0.09" stop-color="white"/>
<stop offset="0.63" stop-color="#FFE9DD"/>
<stop offset="0.85" stop-color="#D35D38" stop-opacity="0.84"/>
<stop offset="1" stop-color="#BB363D" stop-opacity="0.937297"/>
</linearGradient>
<linearGradient id="paint2_linear_26_2514" x1="83.6333" y1="67.3617" x2="86.488" y2="158.41" gradientUnits="userSpaceOnUse">
<stop offset="0.09" stop-color="white"/>
<stop offset="0.48" stop-color="#FFE9DD"/>
<stop offset="0.922094" stop-color="#D35D38" stop-opacity="0.84"/>
<stop offset="1" stop-color="#AB1D40"/>
</linearGradient>
<linearGradient id="paint3_linear_26_2514" x1="115.815" y1="161.2" x2="116.948" y2="187.987" gradientUnits="userSpaceOnUse">
<stop offset="0.025" stop-color="#FFE9DD"/>
<stop offset="0.55" stop-color="#EF6A41" stop-opacity="0.84"/>
<stop offset="1" stop-color="#80233A"/>
</linearGradient>
<radialGradient id="paint4_radial_26_2514" cx="0" cy="0" r="1" gradientUnits="userSpaceOnUse" gradientTransform="translate(118.956 170.224) rotate(127.992) scale(11.462 7.42034)">
<stop offset="0.07" stop-color="#F58A4F"/>
<stop offset="0.55" stop-color="#EF4634"/>
<stop offset="1" stop-color="#DA2351"/>
</radialGradient>
<linearGradient id="paint5_linear_26_2514" x1="169.918" y1="203.127" x2="171.719" y2="278.391" gradientUnits="userSpaceOnUse">
<stop offset="0.09" stop-color="white"/>
<stop offset="0.48" stop-color="#FFE9DD"/>
<stop offset="0.922094" stop-color="#D35D38" stop-opacity="0.84"/>
<stop offset="1" stop-color="#AB1D40"/>
</linearGradient>
<linearGradient id="paint6_linear_26_2514" x1="-10.6031" y1="135.253" x2="-11.2381" y2="82.9998" gradientUnits="userSpaceOnUse">
<stop stop-color="#AB1D40"/>
<stop offset="0.135" stop-color="#D35D38" stop-opacity="0.84"/>
<stop offset="0.38" stop-color="#D8AF98"/>
<stop offset="0.935" stop-color="#CAAFA0"/>
</linearGradient>
<linearGradient id="paint7_linear_26_2514" x1="156.807" y1="47.4654" x2="40.505" y2="249.847" gradientUnits="userSpaceOnUse">
<stop stop-color="#FFE4DD"/>
<stop offset="0.102" stop-color="#F58A4F"/>
<stop offset="0.526577" stop-color="#EF4634"/>
<stop offset="0.885" stop-color="#DA2351"/>
<stop offset="0.995" stop-color="#6B192E"/>
</linearGradient>
<linearGradient id="paint8_linear_26_2514" x1="83.6333" y1="67.3617" x2="86.488" y2="158.41" gradientUnits="userSpaceOnUse">
<stop offset="0.09" stop-color="white"/>
<stop offset="0.48" stop-color="#FFE9DD"/>
<stop offset="0.922094" stop-color="#D35D38" stop-opacity="0.84"/>
<stop offset="1" stop-color="#AB1D40"/>
</linearGradient>
</defs>
</svg>
